<?xml version="1.0" encoding="UTF-8"?>
<svg id="Layer_1" data-name="Layer 1" xmlns="http://www.w3.org/2000/svg" viewBox="0 0 236.2 234.34">
  <defs>
    <style>
      .cls-1 {
        fill: #03818a;
      }

      .cls-2 {
        fill: #a6d2d5;
      }
    </style>
  </defs>
  <rect class="cls-2" x="27.54" y="49.07" width="181.13" height="17" rx="8" ry="8"/>
  <rect class="cls-2" x="27.54" y="95.07" width="181.13" height="17" rx="8" ry="8"/>
  <rect class="cls-2" x="27.54" y="138.07" width="181.13" height="17" rx="8" ry="8"/>
  <rect class="cls-2" x="27.54" y="182.07" width="181.13" height="17" rx="8" ry="8"/>
  <g id="Group_40" data-name="Group 40">
    <g id="Group_18" data-name="Group 18">
      <g id="Rectangle_41" data-name="Rectangle 41">
        <path class="cls-1" d="M152.54,57.57h0c0,4.69-3.81,8.5-8.5,8.5H36.04c-4.69,0-8.5-3.81-8.5-8.5h0c0-4.69,3.81-8.5,8.5-8.5h108c4.69,0,8.5,3.81,8.5,8.5Z"/>
      </g>
      <g id="Rectangle_42" data-name="Rectangle 42">
        <path class="cls-1" d="M77.54,103.57h0c0,4.69-3.81,8.5-8.5,8.5H36.04c-4.69,0-8.5-3.81-8.5-8.5h0c0-4.69,3.81-8.5,8.5-8.5h33c4.69,0,8.5,3.81,8.5,8.5Z"/>
      </g>
      <g id="Rectangle_43" data-name="Rectangle 43">
        <path class="cls-1" d="M52.54,190.57h0c0,4.69-3.81,8.5-8.5,8.5h-8c-4.69,0-8.5-3.81-8.5-8.5h0c0-4.69,3.81-8.5,8.5-8.5h8c4.69,0,8.5,3.81,8.5,8.5Z"/>
      </g>
      <g id="Rectangle_44" data-name="Rectangle 44">
        <path class="cls-1" d="M77.54,146.57h0c0,4.69-3.81,8.5-8.5,8.5H36.04c-4.69,0-8.5-3.81-8.5-8.5h0c0-4.69,3.81-8.5,8.5-8.5h33c4.69,0,8.5,3.81,8.5,8.5Z"/>
      </g>
    </g>
  </g>
</svg>