<?xml version="1.0" encoding="utf-8"?>
<!-- Generator: Adobe Illustrator 26.4.1, SVG Export Plug-In . SVG Version: 6.00 Build 0)  -->
<svg version="1.1" id="Layer_1" xmlns="http://www.w3.org/2000/svg" xmlns:xlink="http://www.w3.org/1999/xlink" x="0px" y="0px"
	 viewBox="0 0 448 512" style="enable-background:new 0 0 448 512;" xml:space="preserve">
<style type="text/css">
	.st0{fill:#FFFFFF;}
</style>
<path class="st0" d="M160,80c0-26.5,21.5-48,48-48h32c26.5,0,48,21.5,48,48v352c0,26.5-21.5,48-48,48h-32c-26.5,0-48-21.5-48-48V80z
	 M0,272c0-26.5,21.5-48,48-48h32c26.5,0,48,21.5,48,48v160c0,26.5-21.5,48-48,48H48c-26.5,0-48-21.5-48-48V272z M368,96h32
	c26.5,0,48,21.5,48,48v288c0,26.5-21.5,48-48,48h-32c-26.5,0-48-21.5-48-48V144C320,117.5,341.5,96,368,96z"/>
</svg>
