<?xml version="1.0" encoding="UTF-8"?>
<svg id="Layer_1" data-name="Layer 1" xmlns="http://www.w3.org/2000/svg" viewBox="0 0 363.17 231.3">
  <defs>
    <style>
      .cls-1 {
        fill: #03818a;
      }

      .cls-2 {
        fill: #a6d2d5;
      }
    </style>
  </defs>
  <g>
    <path class="cls-1" d="M119.37,169.65c-29.82,0-54-24.18-54-54s24.18-54,54-54c0,0,0,0,0,0V29.02c-19.14,0-35.43,5.3-50.92,16.54-38.7,28.12-47.28,82.29-19.16,121,28.12,38.7,82.29,47.28,121,19.16l-19.18-26.4c-8.91,6.49-19.87,10.32-31.74,10.32Z"/>
    <path class="cls-2" d="M119.37,29.02V61.66c29.82,0,53.99,24.18,53.99,54,0,17.96-8.77,33.86-22.26,43.68l19.18,26.4c23.22-16.87,35.71-41.38,35.71-70.08,0-47.84-38.78-86.62-86.62-86.62Z"/>
  </g>
  <g id="Rectangle_48" data-name="Rectangle 48">
    <rect class="cls-1" x="241.14" y="81.19" width="21.54" height="21.54" rx="6.15" ry="6.15"/>
  </g>
  <g id="Rectangle_47" data-name="Rectangle 47">
    <rect class="cls-2" x="241.14" y="128.57" width="21.54" height="21.54" rx="6.15" ry="6.15"/>
  </g>
</svg>