<?xml version="1.0" encoding="UTF-8"?>
<svg id="Layer_1" data-name="Layer 1" xmlns="http://www.w3.org/2000/svg" viewBox="0 0 360.78 212.88">
  <defs>
    <style>
      .cls-1 {
        fill: #03818a;
      }

      .cls-2 {
        fill: #a6d2d5;
      }
    </style>
  </defs>
  <g>
    <path class="cls-2" d="M54.39,106.44c0-29.94,24.27-54.21,54.21-54.21V19.38c-9.62,0-17.76,1.29-26.9,4.26C35.97,38.5,10.95,87.62,25.8,133.35l31.24-10.15c-1.71-5.28-2.65-10.9-2.65-16.75Z"/>
    <path class="cls-1" d="M108.61,19.38V52.23c29.94,0,54.21,24.27,54.21,54.21s-24.27,54.21-54.21,54.21c-24.09,0-44.5-15.72-51.56-37.46l-31.24,10.15c11.89,36.58,44.33,60.16,82.8,60.16,48.08,0,87.06-38.98,87.06-87.06S156.69,19.38,108.61,19.38Z"/>
  </g>
  <g id="Rectangle_48" data-name="Rectangle 48">
    <rect class="cls-1" x="230.37" y="71.98" width="21.54" height="21.54" rx="6.15" ry="6.15"/>
  </g>
  <g id="Rectangle_47" data-name="Rectangle 47">
    <rect class="cls-2" x="230.37" y="119.36" width="21.54" height="21.54" rx="6.15" ry="6.15"/>
  </g>
</svg>